<svg width="100" height="100" viewBox="0 0 100 100" fill="none" xmlns="http://www.w3.org/2000/svg">
<rect width="100" height="100" rx="50" fill="white"/>
<path d="M49.1198 77C48.6137 74.0095 47.2795 70.7891 45.1172 67.3385C42.9549 63.842 39.8724 60.5985 35.8698 57.6081C31.9132 54.6176 27.9566 52.7083 24 51.8802V48.9818C27.9106 48.0616 31.6602 46.3594 35.2487 43.875C38.8832 41.3446 41.9197 38.3082 44.3581 34.7656C46.8424 31.1311 48.4297 27.5425 49.1198 24H52.0182C52.4323 26.3003 53.2604 28.6697 54.5026 31.1081C55.7448 33.5004 57.332 35.8008 59.2643 38.0091C61.2426 40.1714 63.451 42.1267 65.8893 43.875C69.5239 46.4514 73.2274 48.1536 77 48.9818V51.8802C74.4696 52.3863 71.8472 53.4214 69.1328 54.9857C66.4644 56.5499 63.98 58.4132 61.6797 60.5755C59.3793 62.6918 57.4931 64.9232 56.0208 67.2695C53.8585 70.7201 52.5243 73.9635 52.0182 77H49.1198Z" fill="black"/>
</svg>
