<svg width="154" height="154" viewBox="0 0 154 154" fill="none" xmlns="http://www.w3.org/2000/svg">
<mask id="path-1-inside-1_1034_144" fill="white">
<path d="M40.0116 124.781C39.8814 125.965 40.8085 127 41.9996 127H50.1632C51.1006 127 51.9123 126.349 52.1156 125.434L53.4195 119.566C53.6229 118.651 54.4345 118 55.3719 118H77.533C78.7251 118 79.6525 119.036 79.5208 120.221L79.0143 124.779C78.8827 125.964 79.8101 127 81.0021 127H89.9755C90.9955 127 91.852 126.233 91.9635 125.219L102.524 29.2187C102.654 28.0347 101.727 27 100.536 27H52.5596C51.5397 27 50.6832 27.7675 50.5716 28.7813L40.0116 124.781Z"/>
</mask>
<path d="M40.0116 124.781C39.8814 125.965 40.8085 127 41.9996 127H50.1632C51.1006 127 51.9123 126.349 52.1156 125.434L53.4195 119.566C53.6229 118.651 54.4345 118 55.3719 118H77.533C78.7251 118 79.6525 119.036 79.5208 120.221L79.0143 124.779C78.8827 125.964 79.8101 127 81.0021 127H89.9755C90.9955 127 91.852 126.233 91.9635 125.219L102.524 29.2187C102.654 28.0347 101.727 27 100.536 27H52.5596C51.5397 27 50.6832 27.7675 50.5716 28.7813L40.0116 124.781Z" fill="url(#paint0_linear_1034_144)"/>
<path d="M50.5716 28.7813L51.5656 28.8907L50.5716 28.7813ZM79.0143 124.779L78.0205 124.669L79.0143 124.779ZM79.5208 120.221L80.5147 120.331L79.5208 120.221ZM53.4195 119.566L54.3957 119.783L53.4195 119.566ZM52.1156 125.434L51.1394 125.217L52.1156 125.434ZM40.0116 124.781L41.0056 124.891L40.0116 124.781ZM41.9996 127V126H50.1632V127V128H41.9996V127ZM52.1156 125.434L51.1394 125.217L52.4434 119.349L53.4195 119.566L54.3957 119.783L53.0918 125.651L52.1156 125.434ZM55.3719 118V117H77.533V118V119H55.3719V118ZM79.5208 120.221L80.5147 120.331L80.0082 124.89L79.0143 124.779L78.0205 124.669L78.5269 120.11L79.5208 120.221ZM81.0021 127V126H89.9755V127V128H81.0021V127ZM91.9635 125.219L90.9695 125.109L101.53 29.1093L102.524 29.2187L103.518 29.328L92.9575 125.328L91.9635 125.219ZM100.536 27V28H52.5596V27V26H100.536V27ZM50.5716 28.7813L51.5656 28.8907L41.0056 124.891L40.0116 124.781L39.0176 124.672L49.5776 28.672L50.5716 28.7813ZM52.5596 27V28C52.0497 28 51.6214 28.3838 51.5656 28.8907L50.5716 28.7813L49.5776 28.672C49.7449 27.1512 51.0297 26 52.5596 26V27ZM102.524 29.2187L101.53 29.1093C101.595 28.5173 101.131 28 100.536 28V27V26C102.322 26 103.713 27.552 103.518 29.328L102.524 29.2187ZM89.9755 127V126C90.4855 126 90.9138 125.616 90.9695 125.109L91.9635 125.219L92.9575 125.328C92.7902 126.849 91.5054 128 89.9755 128V127ZM79.0143 124.779L80.0082 124.89C79.9424 125.482 80.4061 126 81.0021 126V127V128C79.2141 128 77.823 126.446 78.0205 124.669L79.0143 124.779ZM77.533 118V117C79.3211 117 80.7122 118.554 80.5147 120.331L79.5208 120.221L78.5269 120.11C78.5928 119.518 78.1291 119 77.533 119V118ZM53.4195 119.566L52.4434 119.349C52.7484 117.977 53.9658 117 55.3719 117V118V119C54.9032 119 54.4974 119.326 54.3957 119.783L53.4195 119.566ZM50.1632 127V126C50.6319 126 51.0377 125.674 51.1394 125.217L52.1156 125.434L53.0918 125.651C52.7868 127.023 51.5693 128 50.1632 128V127ZM41.9996 127V128C40.2129 128 38.8223 126.448 39.0176 124.672L40.0116 124.781L41.0056 124.891C40.9405 125.483 41.4041 126 41.9996 126V127Z" fill="#743100" fill-opacity="0.1" mask="url(#path-1-inside-1_1034_144)"/>
<mask id="path-3-inside-2_1034_144" fill="white">
<path d="M113.756 124.781C113.886 125.965 112.959 127 111.768 127H103.604C102.667 127 101.855 126.349 101.652 125.434L100.348 119.566C100.145 118.651 99.3331 118 98.3957 118H76.2345C75.0425 118 74.1151 119.036 74.2468 120.221L74.7532 124.779C74.8849 125.964 73.9575 127 72.7655 127H63.7921C62.7721 127 61.9156 126.233 61.8041 125.219L51.2441 29.2187C51.1138 28.0347 52.0409 27 53.2321 27H101.208C102.228 27 103.084 27.7675 103.196 28.7813L113.756 124.781Z"/>
</mask>
<path d="M113.756 124.781C113.886 125.965 112.959 127 111.768 127H103.604C102.667 127 101.855 126.349 101.652 125.434L100.348 119.566C100.145 118.651 99.3331 118 98.3957 118H76.2345C75.0425 118 74.1151 119.036 74.2468 120.221L74.7532 124.779C74.8849 125.964 73.9575 127 72.7655 127H63.7921C62.7721 127 61.9156 126.233 61.8041 125.219L51.2441 29.2187C51.1138 28.0347 52.0409 27 53.2321 27H101.208C102.228 27 103.084 27.7675 103.196 28.7813L113.756 124.781Z" fill="url(#paint1_linear_1034_144)"/>
<path d="M103.196 28.7813L102.202 28.8907L103.196 28.7813ZM74.7532 124.779L75.7471 124.669L74.7532 124.779ZM74.2468 120.221L73.2529 120.331L74.2468 120.221ZM100.348 119.566L99.3718 119.783L100.348 119.566ZM101.652 125.434L102.628 125.217L101.652 125.434ZM113.756 124.781L112.762 124.891L113.756 124.781ZM111.768 127V126H103.604V127V128H111.768V127ZM101.652 125.434L102.628 125.217L101.324 119.349L100.348 119.566L99.3718 119.783L100.676 125.651L101.652 125.434ZM98.3957 118V117H76.2345V118V119H98.3957V118ZM74.2468 120.221L73.2529 120.331L73.7594 124.89L74.7532 124.779L75.7471 124.669L75.2406 120.11L74.2468 120.221ZM72.7655 127V126H63.7921V127V128H72.7655V127ZM61.8041 125.219L62.7981 125.109L52.2381 29.1093L51.2441 29.2187L50.25 29.328L60.8101 125.328L61.8041 125.219ZM53.2321 27V28H101.208V27V26H53.2321V27ZM103.196 28.7813L102.202 28.8907L112.762 124.891L113.756 124.781L114.75 124.672L104.19 28.672L103.196 28.7813ZM101.208 27V28C101.718 28 102.146 28.3838 102.202 28.8907L103.196 28.7813L104.19 28.672C104.023 27.1512 102.738 26 101.208 26V27ZM51.2441 29.2187L52.2381 29.1093C52.1729 28.5173 52.6365 28 53.2321 28V27V26C51.4454 26 50.0547 27.552 50.25 29.328L51.2441 29.2187ZM63.7921 127V126C63.2821 126 62.8538 125.616 62.7981 125.109L61.8041 125.219L60.8101 125.328C60.9773 126.849 62.2622 128 63.7921 128V127ZM74.7532 124.779L73.7594 124.89C73.8252 125.482 73.3615 126 72.7655 126V127V128C74.5535 128 75.9446 126.446 75.7471 124.669L74.7532 124.779ZM76.2345 118V117C74.4465 117 73.0554 118.554 73.2529 120.331L74.2468 120.221L75.2406 120.11C75.1748 119.518 75.6385 119 76.2345 119V118ZM100.348 119.566L101.324 119.349C101.019 117.977 99.8018 117 98.3957 117V118V119C98.8644 119 99.2702 119.326 99.3718 119.783L100.348 119.566ZM103.604 127V126C103.136 126 102.73 125.674 102.628 125.217L101.652 125.434L100.676 125.651C100.981 127.023 102.198 128 103.604 128V127ZM111.768 127V128C113.555 128 114.945 126.448 114.75 124.672L113.756 124.781L112.762 124.891C112.827 125.483 112.364 126 111.768 126V127Z" fill="#743100" fill-opacity="0.1" mask="url(#path-3-inside-2_1034_144)"/>
<path d="M76.5128 50.6466C77.5411 48.4623 80.6794 48.4282 82.2395 50.5442L82.3126 50.6466L96.7999 71.616C98.333 73.8349 97.0272 76.6086 94.4495 76.6086H70.09C67.5123 76.6086 65.596 73.8349 66.6407 71.616L76.5128 50.6466ZM80.6825 51.6452C80.0692 50.7576 78.7805 50.7576 78.3627 51.6452L68.4906 72.6145C68.0727 73.5021 68.8392 74.6115 69.8702 74.6116H94.2297C95.2608 74.6116 95.783 73.5021 95.1698 72.6145L80.6825 51.6452Z" fill="#834600"/>
<path d="M79.5839 59.772C79.9391 59.772 80.2951 59.9121 80.5738 60.1617L80.8694 60.4266C81.0498 60.5883 81.19 60.7889 81.2762 61.0091L83.1149 65.7027C83.2424 66.0282 83.0729 66.3626 82.7468 66.4289C82.4601 66.4871 82.1512 66.3162 82.0308 66.0327L80.7125 62.9262L79.9162 64.3843C79.6564 64.8602 79.7507 65.4805 80.1509 65.929L80.9801 66.8583C81.1824 67.085 81.3119 67.3626 81.3491 67.6498L81.8514 71.5253C81.9085 71.9662 81.5912 72.3281 81.1475 72.3281C80.7098 72.3281 80.316 71.9756 80.2681 71.5405L79.8408 67.6579L78.1961 65.8555L78.1652 68.0912C78.161 68.394 78.0511 68.675 77.8535 68.8869L75.1917 71.7398C74.8868 72.0666 74.3448 72.0615 73.9733 71.7287C73.5701 71.3674 73.5345 70.773 73.897 70.4497L76.1197 68.4679C76.377 68.2384 76.5165 67.9041 76.5057 67.5425L76.4085 64.2878C76.4017 64.0567 76.4563 63.8344 76.5668 63.6429L78.0207 61.1238H77.6741C77.2533 61.1239 76.8785 61.3203 76.6622 61.6546L75.9284 62.7894C75.7277 63.0996 75.2746 63.1315 74.9682 62.857C74.7225 62.6367 74.655 62.2898 74.8085 62.0359L75.8382 60.3323C76.0507 59.9808 76.4346 59.772 76.8684 59.772H79.5839ZM80.8191 56.9707C81.6513 56.9707 82.3997 57.6413 82.4907 58.4685C82.5818 59.2957 81.9809 59.9663 81.1487 59.9663C80.3165 59.9663 79.5681 59.2957 79.477 58.4685C79.386 57.6413 79.9869 56.9707 80.8191 56.9707Z" fill="#834600"/>
<path d="M87.137 68.5848L73.8823 62.3022L74.1176 61.7073L87.3722 67.9901L87.137 68.5848Z" fill="#834600"/>
<path d="M86.7314 69.6189L87.7595 66.7897L89.8968 67.9546L89.9224 68.1873C90.0213 69.0857 89.6775 69.9288 88.9995 70.451L86.7314 69.6189Z" fill="#834600"/>
<path d="M89.7398 68.0499L87.8589 67.0247L86.9493 69.5275L88.9516 70.2621C89.5457 69.7683 89.8447 69.0027 89.755 68.1874L89.7398 68.0499ZM90.0898 68.1874C90.1946 69.1395 89.8304 70.0331 89.1119 70.5865L88.9995 70.451L88.9564 70.6064L86.5131 69.7099L86.5722 69.548L87.66 66.5544L90.0537 67.8591L90.0898 68.1874Z" fill="#834600"/>
<path d="M85.9078 73.613H94.5377L89.8235 67.289C89.0413 67.7882 89.766 68.2875 89.1512 68.7868C88.2818 69.4928 88.9263 69.7853 88.0316 70.7838C87.1369 71.7824 87.2311 71.1167 87.0061 72.1152C86.7811 73.1138 85.7582 72.9473 85.9078 73.613Z" fill="#834600"/>
<path d="M94.8598 73.7795H85.7768L85.7436 73.6319C85.6949 73.4155 85.7429 73.2528 85.8503 73.1245C85.9465 73.0096 86.0913 72.9236 86.2156 72.8456C86.475 72.6828 86.7425 72.5011 86.8413 72.0626C86.8969 71.8161 86.9356 71.6582 86.9774 71.5519C87.0243 71.4326 87.0787 71.3689 87.1595 71.3111C87.1921 71.2878 87.2338 71.2624 87.2706 71.2386C87.3104 71.2128 87.3567 71.1811 87.4128 71.1375C87.5252 71.0502 87.681 70.9108 87.9002 70.6662C88.1157 70.4256 88.2343 70.2324 88.3061 70.0697C88.378 69.9068 88.406 69.7688 88.4357 69.6254C88.4654 69.4824 88.4978 69.3294 88.5844 69.1667C88.6714 69.0034 88.8082 68.8386 89.0361 68.6535C89.1678 68.5465 89.2194 68.4478 89.2418 68.3567C89.2663 68.2572 89.2598 68.1586 89.2562 68.0239C89.2529 67.896 89.2533 67.7425 89.318 67.5864C89.3835 67.4281 89.5079 67.2827 89.7218 67.1463L89.8529 67.0627L94.8598 73.7795ZM89.8002 67.5233C89.7081 67.6015 89.6592 67.6743 89.6318 67.7404C89.5932 67.8338 89.5897 67.9302 89.5929 68.0518C89.5959 68.1667 89.6066 68.3179 89.5696 68.4679C89.5306 68.6264 89.4419 68.7774 89.2662 68.92C89.0595 69.0879 88.951 69.2246 88.8863 69.3458C88.8214 69.4677 88.7957 69.5827 88.766 69.7258C88.7363 69.8685 88.7034 70.0352 88.6174 70.23C88.5313 70.425 88.3946 70.6428 88.1628 70.9015C87.9348 71.156 87.7667 71.308 87.6381 71.4079C87.5738 71.4579 87.5202 71.4939 87.4758 71.5227C87.4284 71.5534 87.4014 71.5697 87.3757 71.588C87.3402 71.6134 87.32 71.6329 87.2933 71.7008C87.2615 71.7817 87.2277 71.9151 87.1708 72.1679C87.0446 72.7278 86.6884 72.9623 86.4175 73.1323C86.2767 73.2207 86.1796 73.2804 86.119 73.3527C86.0955 73.3808 86.0781 73.4106 86.0689 73.4466H94.2156L89.8002 67.5233Z" fill="#834600"/>
<rect width="31.2605" height="3.01811" rx="0.5" transform="matrix(1 0 -0.109387 -0.993999 68.3301 88)" fill="#834600"/>
<rect width="12.7728" height="2.01207" rx="0.5" transform="matrix(1 0 -0.109387 -0.993999 64.2197 92)" fill="#834600"/>
<rect width="7.74941" height="2.01207" rx="0.5" transform="matrix(1 0 -0.109387 -0.993999 78.2197 92)" fill="#834600"/>
<rect width="4.7188" height="2.01207" rx="0.5" transform="matrix(1 0 -0.109387 -0.993999 87.2197 92)" fill="#834600"/>
<rect width="9.76986" height="2.01207" rx="0.5" transform="matrix(1 0 -0.109387 -0.993999 65.2197 95)" fill="#834600"/>
<rect width="14.7407" height="2.01207" rx="0.5" transform="matrix(1 0 -0.109387 -0.993999 76.1914 95)" fill="#834600"/>
<rect width="10.8221" height="2.01207" rx="0.5" transform="matrix(1 0 -0.109387 -0.993999 92.1914 95)" fill="#834600"/>
<rect width="10.8118" height="2.01207" rx="0.5" transform="matrix(1 0 -0.109387 -0.993999 93.2197 92)" fill="#834600"/>
<defs>
<linearGradient id="paint0_linear_1034_144" x1="71.2681" y1="27" x2="71.2681" y2="127" gradientUnits="userSpaceOnUse">
<stop stop-color="#EDBE26"/>
<stop offset="1" stop-color="#EDA126"/>
</linearGradient>
<linearGradient id="paint1_linear_1034_144" x1="82.4995" y1="27" x2="82.4995" y2="127" gradientUnits="userSpaceOnUse">
<stop stop-color="#FFCF31"/>
<stop offset="1" stop-color="#FFBE31"/>
</linearGradient>
</defs>
</svg>
