<svg width="451" height="7" viewBox="0 0 451 7" fill="none" xmlns="http://www.w3.org/2000/svg">
<g clip-path="url(#clip0_1384_273)">
<path d="M13 7.00018V0.680176H18.76V7.00018H13ZM20.2 7.00018V0.680176H24.52V7.00018H20.2ZM25.96 7.00018V0.680176H27.4V7.00018H25.96Z" fill="currentColor"/>
<path d="M28.8438 7.00018V0.680176H30.2838V7.00018H28.8438ZM31.7238 7.00018V0.680176H34.6038V7.00018H31.7238ZM37.4837 7.00018V0.680176H38.9237V7.00018H37.4837Z" fill="currentColor"/>
<path d="M44.6875 7.00018V0.680176H46.1275V7.00018H44.6875ZM50.4475 7.00018V0.680176H56.2075V7.00018H50.4475ZM57.6475 7.00018V0.680176H59.0875V7.00018H57.6475Z" fill="currentColor"/>
<path d="M60.5312 7.00018V0.680176H66.2913V7.00018H60.5312ZM69.1712 7.00018V0.680176H70.6113V7.00018H69.1712ZM72.0513 7.00018V0.680176H73.4912V7.00018H72.0513Z" fill="currentColor"/>
<path d="M76.375 7.00018V0.680176H79.255V7.00018H76.375ZM80.695 7.00018V0.680176H83.575V7.00018H80.695ZM86.455 7.00018V0.680176H89.335V7.00018H86.455Z" fill="currentColor"/>
<path d="M92.2188 7.00018V0.680176H93.6588V7.00018H92.2188ZM96.5387 7.00018V0.680176H102.299V7.00018H96.5387ZM105.179 7.00018V0.680176H106.619V7.00018H105.179Z" fill="currentColor"/>
<path d="M108.062 7.00018V0.680176H113.823V7.00018H108.062ZM116.702 7.00018V0.680176H118.143V7.00018H116.702ZM119.583 7.00018V0.680176H121.022V7.00018H119.583Z" fill="currentColor"/>
<path d="M123.906 7.00018V0.680176H125.346V7.00018H123.906ZM128.226 7.00018V0.680176H133.986V7.00018H128.226ZM136.866 7.00018V0.680176H138.306V7.00018H136.866Z" fill="currentColor"/>
<path d="M139.75 7.00018V0.680176H142.63V7.00018H139.75ZM144.07 7.00018V0.680176H146.95V7.00018H144.07ZM149.83 7.00018V0.680176H152.71V7.00018H149.83Z" fill="currentColor"/>
<path d="M155.594 7.00018V0.680176H161.354V7.00018H155.594ZM162.794 7.00018V0.680176H167.114V7.00018H162.794ZM168.554 7.00018V0.680176H169.994V7.00018H168.554Z" fill="currentColor"/>
<path d="M171.438 7.00018V0.680176H172.878V7.00018H171.438ZM174.318 7.00018V0.680176H177.197V7.00018H174.318ZM180.077 7.00018V0.680176H181.518V7.00018H180.077Z" fill="currentColor"/>
<path d="M187.281 7.00018V0.680176H188.721V7.00018H187.281ZM193.041 7.00018V0.680176H198.801V7.00018H193.041ZM200.241 7.00018V0.680176H201.681V7.00018H200.241Z" fill="currentColor"/>
<path d="M203.125 7.00018V0.680176H208.885V7.00018H203.125ZM211.765 7.00018V0.680176H213.205V7.00018H211.765ZM214.645 7.00018V0.680176H216.085V7.00018H214.645Z" fill="currentColor"/>
<path d="M218.969 7.00018V0.680176H221.849V7.00018H218.969ZM223.289 7.00018V0.680176H226.169V7.00018H223.289ZM229.049 7.00018V0.680176H231.929V7.00018H229.049Z" fill="currentColor"/>
<path d="M234.812 7.00018V0.680176H236.253V7.00018H234.812ZM240.572 7.00018V0.680176H246.333V7.00018H240.572ZM247.773 7.00018V0.680176H249.212V7.00018H247.773Z" fill="currentColor"/>
<path d="M250.656 7.00018V0.680176H256.416V7.00018H250.656ZM259.296 7.00018V0.680176H260.736V7.00018H259.296ZM262.176 7.00018V0.680176H263.616V7.00018H262.176Z" fill="currentColor"/>
<path d="M266.5 7.00018V0.680176H267.94V7.00018H266.5ZM272.26 7.00018V0.680176H278.02V7.00018H272.26ZM279.46 7.00018V0.680176H280.9V7.00018H279.46Z" fill="currentColor"/>
<path d="M282.344 7.00018V0.680176H285.224V7.00018H282.344ZM286.664 7.00018V0.680176H289.544V7.00018H286.664ZM292.424 7.00018V0.680176H295.304V7.00018H292.424Z" fill="currentColor"/>
<path d="M298.188 7.00018V0.680176H303.948V7.00018H298.188ZM305.388 7.00018V0.680176H309.707V7.00018H305.388ZM311.147 7.00018V0.680176H312.587V7.00018H311.147Z" fill="currentColor"/>
<path d="M314.031 7.00018V0.680176H315.471V7.00018H314.031ZM316.911 7.00018V0.680176H319.791V7.00018H316.911ZM322.671 7.00018V0.680176H324.111V7.00018H322.671Z" fill="currentColor"/>
<path d="M329.875 7.00018V0.680176H331.315V7.00018H329.875ZM335.635 7.00018V0.680176H341.395V7.00018H335.635ZM342.835 7.00018V0.680176H344.275V7.00018H342.835Z" fill="currentColor"/>
<path d="M345.719 7.00018V0.680176H351.479V7.00018H345.719ZM354.359 7.00018V0.680176H355.799V7.00018H354.359ZM357.239 7.00018V0.680176H358.679V7.00018H357.239Z" fill="currentColor"/>
<path d="M361.562 7.00018V0.680176H364.443V7.00018H361.562ZM365.883 7.00018V0.680176H368.763V7.00018H365.883ZM371.642 7.00018V0.680176H374.522V7.00018H371.642Z" fill="currentColor"/>
<path d="M377.406 7.00018V0.680176H378.846V7.00018H377.406ZM381.726 7.00018V0.680176H387.486V7.00018H381.726ZM390.366 7.00018V0.680176H391.806V7.00018H390.366Z" fill="currentColor"/>
<path d="M393.25 7.00018V0.680176H399.01V7.00018H393.25ZM401.89 7.00018V0.680176H403.33V7.00018H401.89ZM404.77 7.00018V0.680176H406.21V7.00018H404.77Z" fill="currentColor"/>
<path d="M409.094 7.00018V0.680176H410.534V7.00018H409.094ZM413.414 7.00018V0.680176H419.174V7.00018H413.414ZM422.054 7.00018V0.680176H423.494V7.00018H422.054Z" fill="currentColor"/>
<path d="M424.938 7.00018V0.680176H427.818V7.00018H424.938ZM429.258 7.00018V0.680176H432.138V7.00018H429.258ZM435.017 7.00018V0.680176H437.897V7.00018H435.017Z" fill="currentColor"/>
</g>
<defs>
<clipPath id="clip0_1384_273">
<rect width="451" height="7" rx="3.5" fill="white"/>
</clipPath>
</defs>
</svg>
