<svg width="54" height="54" viewBox="0 0 54 54" fill="none" xmlns="http://www.w3.org/2000/svg">
<path fill-rule="evenodd" clip-rule="evenodd" d="M27 0C41.9117 0 54 11.9394 54 26.667L53.9912 27.3545C53.8451 33.0545 51.886 38.3084 48.665 42.5791L48.666 42.667H48.5986C43.6726 49.1428 35.8325 53.333 27 53.333C12.3212 53.3329 0.37818 41.7642 0.00878906 27.3545L0 26.667C0 11.9394 12.0884 6.10905e-05 27 0ZM18.5684 42.8867C18.8196 43.4943 19.0847 44.0756 19.3613 44.6289C21.5956 49.0971 24.5452 51.2057 27 51.333C29.5161 51.3328 32.3332 49.2416 34.6396 44.6289C34.935 44.0382 35.2152 43.415 35.4814 42.7627L18.5684 42.8867ZM8.23438 42.9619C11.5848 46.7162 16.0744 49.4576 21.1758 50.6582C19.305 48.838 17.6768 46.1704 16.4209 42.9023L8.23438 42.9619ZM37.6357 42.7471C36.372 46.0854 34.7242 48.8094 32.8242 50.6582C38.0499 49.4284 42.6329 46.5814 46.0078 42.6855L37.6357 42.7471ZM2.03613 28C2.29658 32.819 3.96123 37.2747 6.63477 40.9736L15.7256 40.9072C14.5331 37.1389 13.7991 32.7317 13.6826 28H2.03613ZM15.6836 28C15.8065 32.8074 16.5898 37.2204 17.8242 40.8916L36.2197 40.7578C37.4284 37.1133 38.195 32.7493 38.3164 28H15.6836ZM40.3174 28C40.2026 32.6629 39.4871 37.0104 38.3252 40.7422L47.5771 40.6748C50.1263 37.0356 51.7104 32.6901 51.9639 28H40.3174ZM7.27734 11.5098C4.09883 15.5315 2.15566 20.548 2.00879 26H13.6709C13.7369 20.6243 14.5989 15.6434 16.0293 11.5098H7.27734ZM18.1533 11.5098C16.6693 15.5186 15.7407 20.5167 15.6709 26H38.3291C38.2592 20.5167 37.3307 15.5186 35.8467 11.5098H18.1533ZM37.9707 11.5098C39.4012 15.6434 40.2631 20.6243 40.3291 26H51.9912C51.8443 20.5479 49.9012 15.5316 46.7227 11.5098H37.9707ZM21.1748 2.67383C16.4723 3.78072 12.2897 6.19767 9.04004 9.50977H16.793C17.9916 6.66014 19.4832 4.31985 21.1748 2.67383ZM27 2C24.4839 2.00018 21.6678 4.09226 19.3613 8.70508C19.2303 8.96704 19.102 9.23541 18.9766 9.50977H35.0234C34.8981 9.2355 34.7706 8.96696 34.6396 8.70508C32.3332 4.09217 29.5162 2.00018 27 2ZM32.8242 2.67383C34.5161 4.31987 36.0082 6.65992 37.207 9.50977H44.96C41.71 6.19746 37.5271 3.78059 32.8242 2.67383Z" fill="url(#paint0_radial_1382_272)"/>
<defs>
<radialGradient id="paint0_radial_1382_272" cx="0" cy="0" r="1" gradientUnits="userSpaceOnUse" gradientTransform="translate(26.9982 26.6665) rotate(90) scale(25.5071 46.6053)">
<stop offset="0.639423" stop-opacity="0.2"/>
<stop offset="1" stop-opacity="0.05"/>
</radialGradient>
</defs>
</svg>
